<svg width="320" height="200" viewBox="0 0 320 200" fill="none" xmlns="http://www.w3.org/2000/svg">
<rect width="320" height="200" fill="#181818"/>
<path d="M103.162 64.1583L92.0909 98H83.6788L76.2337 75.0843L68.5468 98H60.183L49.0636 64.1583H57.1856L64.8242 87.9442L72.8012 64.1583H80.053L87.7882 88.1376L95.6685 64.1583H103.162ZM130.545 85.0918C130.545 85.1885 130.496 85.8653 130.4 87.1223H110.723C111.078 88.7338 111.916 90.0069 113.237 90.9416C114.559 91.8763 116.202 92.3436 118.168 92.3436C119.522 92.3436 120.715 92.1502 121.746 91.7635C122.809 91.3445 123.792 90.6999 124.695 89.8296L128.708 94.1807C126.258 96.9847 122.681 98.3868 117.975 98.3868C115.042 98.3868 112.447 97.8227 110.191 96.6947C107.935 95.5344 106.195 93.939 104.97 91.9085C103.745 89.878 103.133 87.5735 103.133 84.9951C103.133 82.4489 103.729 80.1606 104.922 78.1301C106.146 76.0673 107.806 74.4719 109.901 73.3439C112.028 72.1836 114.397 71.6035 117.008 71.6035C119.554 71.6035 121.859 72.1514 123.921 73.2472C125.984 74.343 127.596 75.9223 128.756 77.985C129.948 80.0155 130.545 82.3845 130.545 85.0918ZM117.056 77.3082C115.348 77.3082 113.914 77.7917 112.754 78.7586C111.593 79.7255 110.884 81.0469 110.626 82.7229H123.438C123.18 81.0791 122.471 79.7738 121.311 78.8069C120.15 77.8078 118.732 77.3082 117.056 77.3082Z" fill="#FFA800"/>
<path d="M167.135 64.1583V98H160.705L143.833 77.4532V98H136.098V64.1583H142.576L159.4 84.705V64.1583H167.135ZM200.088 85.0918C200.088 85.1885 200.04 85.8653 199.943 87.1223H180.267C180.621 88.7338 181.459 90.0069 182.781 90.9416C184.102 91.8763 185.746 92.3436 187.712 92.3436C189.066 92.3436 190.258 92.1502 191.289 91.7635C192.353 91.3445 193.336 90.6999 194.239 89.8296L198.251 94.1807C195.802 96.9847 192.224 98.3868 187.519 98.3868C184.586 98.3868 181.991 97.8227 179.735 96.6947C177.479 95.5344 175.738 93.939 174.514 91.9085C173.289 89.878 172.677 87.5735 172.677 84.9951C172.677 82.4489 173.273 80.1606 174.465 78.1301C175.69 76.0673 177.35 74.4719 179.445 73.3439C181.572 72.1836 183.941 71.6035 186.552 71.6035C189.098 71.6035 191.402 72.1514 193.465 73.2472C195.528 74.343 197.139 75.9223 198.3 77.985C199.492 80.0155 200.088 82.3845 200.088 85.0918ZM186.6 77.3082C184.892 77.3082 183.458 77.7917 182.297 78.7586C181.137 79.7255 180.428 81.0469 180.17 82.7229H192.982C192.724 81.0791 192.015 79.7738 190.854 78.8069C189.694 77.8078 188.276 77.3082 186.6 77.3082ZM246.408 71.9902L236.98 98H229.729L223.879 81.8527L217.836 98H210.584L201.205 71.9902H208.312L214.451 89.5879L220.833 71.9902H227.215L233.403 89.5879L239.736 71.9902H246.408ZM258.287 98.3868C256.127 98.3868 254.016 98.1289 251.953 97.6132C249.891 97.0653 248.247 96.3885 247.022 95.5827L249.536 90.1681C250.696 90.9094 252.098 91.5217 253.742 92.0052C255.386 92.4564 256.997 92.682 258.577 92.682C261.768 92.682 263.363 91.8924 263.363 90.3131C263.363 89.5718 262.928 89.04 262.058 88.7177C261.187 88.3954 259.85 88.1214 258.045 87.8958C255.918 87.5735 254.161 87.2029 252.775 86.7839C251.389 86.3649 250.181 85.6236 249.149 84.56C248.15 83.4964 247.651 81.9816 247.651 80.0155C247.651 78.3718 248.118 76.9214 249.053 75.6645C250.02 74.3753 251.406 73.3761 253.21 72.667C255.048 71.958 257.207 71.6035 259.689 71.6035C261.526 71.6035 263.347 71.8129 265.152 72.2319C266.989 72.6187 268.504 73.1666 269.696 73.8757L267.182 79.242C264.894 77.9528 262.396 77.3082 259.689 77.3082C258.077 77.3082 256.869 77.5338 256.063 77.985C255.257 78.4363 254.854 79.0164 254.854 79.7255C254.854 80.5312 255.289 81.0953 256.159 81.4176C257.03 81.7399 258.416 82.046 260.317 82.3361C262.444 82.6906 264.185 83.0774 265.538 83.4964C266.892 83.8832 268.069 84.6083 269.068 85.6719C270.067 86.7355 270.566 88.2181 270.566 90.1197C270.566 91.7312 270.083 93.1655 269.116 94.4224C268.149 95.6794 266.731 96.6624 264.862 97.3715C263.025 98.0483 260.833 98.3868 258.287 98.3868Z" fill="white"/>
<rect x="160.806" y="63.8921" width="109.583" height="4.02878" fill="white"/>
<rect x="99.5683" y="63.8921" width="30.6187" height="4.02878" fill="#FFA800"/>
<path d="M124.952 108.8H125.768V119.264H132.216V120H124.952V108.8ZM137.179 120.064C136.389 120.064 135.675 119.883 135.035 119.52C134.405 119.157 133.909 118.656 133.547 118.016C133.184 117.365 133.003 116.635 133.003 115.824C133.003 115.013 133.184 114.288 133.547 113.648C133.909 112.997 134.405 112.491 135.035 112.128C135.675 111.765 136.389 111.584 137.179 111.584C137.968 111.584 138.677 111.765 139.307 112.128C139.947 112.491 140.448 112.997 140.811 113.648C141.173 114.288 141.355 115.013 141.355 115.824C141.355 116.635 141.173 117.365 140.811 118.016C140.448 118.656 139.947 119.157 139.307 119.52C138.677 119.883 137.968 120.064 137.179 120.064ZM137.179 119.344C137.819 119.344 138.389 119.195 138.891 118.896C139.403 118.597 139.803 118.181 140.091 117.648C140.389 117.115 140.539 116.507 140.539 115.824C140.539 115.141 140.389 114.533 140.091 114C139.803 113.467 139.403 113.051 138.891 112.752C138.389 112.453 137.819 112.304 137.179 112.304C136.539 112.304 135.963 112.453 135.451 112.752C134.949 113.051 134.549 113.467 134.251 114C133.963 114.533 133.819 115.141 133.819 115.824C133.819 116.507 133.963 117.115 134.251 117.648C134.549 118.181 134.949 118.597 135.451 118.896C135.963 119.195 136.539 119.344 137.179 119.344ZM146.621 111.584C147.656 111.584 148.451 111.851 149.005 112.384C149.56 112.907 149.837 113.68 149.837 114.704V120H149.069V118.512C148.803 119.003 148.413 119.387 147.901 119.664C147.389 119.931 146.776 120.064 146.061 120.064C145.133 120.064 144.397 119.845 143.853 119.408C143.32 118.971 143.053 118.395 143.053 117.68C143.053 116.987 143.299 116.427 143.789 116C144.291 115.563 145.085 115.344 146.173 115.344H149.037V114.672C149.037 113.893 148.824 113.301 148.397 112.896C147.981 112.491 147.368 112.288 146.557 112.288C146.003 112.288 145.469 112.384 144.957 112.576C144.456 112.768 144.029 113.024 143.677 113.344L143.277 112.768C143.693 112.395 144.195 112.107 144.781 111.904C145.368 111.691 145.981 111.584 146.621 111.584ZM146.173 119.408C146.867 119.408 147.453 119.248 147.933 118.928C148.424 118.608 148.792 118.144 149.037 117.536V115.968H146.189C145.368 115.968 144.771 116.117 144.397 116.416C144.035 116.715 143.853 117.125 143.853 117.648C143.853 118.192 144.056 118.624 144.461 118.944C144.867 119.253 145.437 119.408 146.173 119.408ZM160.573 108.128V120H159.789V118.032C159.458 118.683 158.994 119.184 158.397 119.536C157.8 119.888 157.122 120.064 156.365 120.064C155.586 120.064 154.882 119.883 154.253 119.52C153.624 119.157 153.128 118.656 152.765 118.016C152.413 117.376 152.237 116.645 152.237 115.824C152.237 115.003 152.413 114.272 152.765 113.632C153.128 112.981 153.624 112.48 154.253 112.128C154.882 111.765 155.586 111.584 156.365 111.584C157.112 111.584 157.778 111.76 158.365 112.112C158.962 112.464 159.432 112.955 159.773 113.584V108.128H160.573ZM156.413 119.344C157.053 119.344 157.624 119.195 158.125 118.896C158.637 118.597 159.037 118.181 159.325 117.648C159.624 117.115 159.773 116.507 159.773 115.824C159.773 115.141 159.624 114.533 159.325 114C159.037 113.467 158.637 113.051 158.125 112.752C157.624 112.453 157.053 112.304 156.413 112.304C155.773 112.304 155.197 112.453 154.685 112.752C154.184 113.051 153.784 113.467 153.485 114C153.197 114.533 153.053 115.141 153.053 115.824C153.053 116.507 153.197 117.115 153.485 117.648C153.784 118.181 154.184 118.597 154.685 118.896C155.197 119.195 155.773 119.344 156.413 119.344ZM163.946 111.648H164.746V120H163.946V111.648ZM164.346 109.616C164.165 109.616 164.01 109.557 163.882 109.44C163.754 109.312 163.69 109.157 163.69 108.976C163.69 108.795 163.754 108.64 163.882 108.512C164.01 108.384 164.165 108.32 164.346 108.32C164.527 108.32 164.682 108.384 164.81 108.512C164.938 108.629 165.002 108.779 165.002 108.96C165.002 109.141 164.938 109.296 164.81 109.424C164.682 109.552 164.527 109.616 164.346 109.616ZM172.198 111.584C173.243 111.584 174.07 111.888 174.678 112.496C175.286 113.104 175.59 113.979 175.59 115.12V120H174.79V115.184C174.79 114.245 174.55 113.531 174.07 113.04C173.601 112.549 172.939 112.304 172.086 112.304C171.105 112.304 170.331 112.597 169.766 113.184C169.201 113.771 168.918 114.56 168.918 115.552V120H168.118V111.648H168.886V113.456C169.174 112.869 169.601 112.411 170.166 112.08C170.742 111.749 171.419 111.584 172.198 111.584ZM186.419 111.648V119.104C186.419 120.491 186.083 121.515 185.411 122.176C184.739 122.837 183.726 123.168 182.371 123.168C181.603 123.168 180.878 123.051 180.195 122.816C179.512 122.581 178.963 122.256 178.547 121.84L178.979 121.232C179.395 121.616 179.896 121.915 180.483 122.128C181.07 122.341 181.694 122.448 182.355 122.448C183.464 122.448 184.286 122.181 184.819 121.648C185.352 121.125 185.619 120.309 185.619 119.2V117.792C185.278 118.4 184.803 118.869 184.195 119.2C183.587 119.531 182.904 119.696 182.147 119.696C181.368 119.696 180.659 119.525 180.019 119.184C179.39 118.832 178.894 118.347 178.531 117.728C178.168 117.109 177.987 116.411 177.987 115.632C177.987 114.853 178.168 114.155 178.531 113.536C178.894 112.917 179.39 112.437 180.019 112.096C180.659 111.755 181.368 111.584 182.147 111.584C182.915 111.584 183.608 111.755 184.227 112.096C184.846 112.437 185.32 112.917 185.651 113.536V111.648H186.419ZM182.211 118.976C182.862 118.976 183.448 118.837 183.971 118.56C184.494 118.272 184.899 117.877 185.187 117.376C185.486 116.864 185.635 116.283 185.635 115.632C185.635 114.981 185.486 114.405 185.187 113.904C184.899 113.403 184.494 113.013 183.971 112.736C183.448 112.448 182.862 112.304 182.211 112.304C181.56 112.304 180.974 112.448 180.451 112.736C179.939 113.013 179.534 113.403 179.235 113.904C178.947 114.405 178.803 114.981 178.803 115.632C178.803 116.283 178.947 116.864 179.235 117.376C179.534 117.877 179.939 118.272 180.451 118.56C180.974 118.837 181.56 118.976 182.211 118.976ZM189.709 120.064C189.528 120.064 189.368 120 189.229 119.872C189.101 119.733 189.037 119.568 189.037 119.376C189.037 119.184 189.101 119.024 189.229 118.896C189.368 118.768 189.528 118.704 189.709 118.704C189.891 118.704 190.045 118.768 190.173 118.896C190.312 119.024 190.381 119.184 190.381 119.376C190.381 119.568 190.312 119.733 190.173 119.872C190.045 120 189.891 120.064 189.709 120.064ZM192.913 120.064C192.731 120.064 192.571 120 192.433 119.872C192.305 119.733 192.241 119.568 192.241 119.376C192.241 119.184 192.305 119.024 192.433 118.896C192.571 118.768 192.731 118.704 192.913 118.704C193.094 118.704 193.249 118.768 193.377 118.896C193.515 119.024 193.585 119.184 193.585 119.376C193.585 119.568 193.515 119.733 193.377 119.872C193.249 120 193.094 120.064 192.913 120.064ZM196.116 120.064C195.934 120.064 195.774 120 195.636 119.872C195.508 119.733 195.444 119.568 195.444 119.376C195.444 119.184 195.508 119.024 195.636 118.896C195.774 118.768 195.934 118.704 196.116 118.704C196.297 118.704 196.452 118.768 196.58 118.896C196.718 119.024 196.788 119.184 196.788 119.376C196.788 119.568 196.718 119.733 196.58 119.872C196.452 120 196.297 120.064 196.116 120.064Z" fill="white"/>
</svg>
