<svg width="320" height="200" viewBox="0 0 320 200" fill="none" xmlns="http://www.w3.org/2000/svg">
<rect width="320" height="200" fill="#181818"/>
<path d="M103.162 64.1583L92.0909 98H83.6788L76.2337 75.0843L68.5468 98H60.183L49.0636 64.1583H57.1856L64.8242 87.9442L72.8012 64.1583H80.053L87.7882 88.1376L95.6685 64.1583H103.162ZM130.545 85.0918C130.545 85.1885 130.496 85.8653 130.4 87.1223H110.723C111.078 88.7338 111.916 90.0069 113.237 90.9416C114.559 91.8763 116.202 92.3436 118.168 92.3436C119.522 92.3436 120.715 92.1502 121.746 91.7635C122.809 91.3445 123.792 90.6999 124.695 89.8296L128.708 94.1807C126.258 96.9847 122.681 98.3868 117.975 98.3868C115.042 98.3868 112.447 97.8227 110.191 96.6947C107.935 95.5344 106.195 93.939 104.97 91.9085C103.745 89.878 103.133 87.5735 103.133 84.9951C103.133 82.4489 103.729 80.1606 104.922 78.1301C106.146 76.0673 107.806 74.4719 109.901 73.3439C112.028 72.1836 114.397 71.6035 117.008 71.6035C119.554 71.6035 121.859 72.1514 123.921 73.2472C125.984 74.343 127.596 75.9223 128.756 77.985C129.948 80.0155 130.545 82.3845 130.545 85.0918ZM117.056 77.3082C115.348 77.3082 113.914 77.7917 112.754 78.7586C111.593 79.7255 110.884 81.0469 110.626 82.7229H123.438C123.18 81.0791 122.471 79.7738 121.311 78.8069C120.15 77.8078 118.732 77.3082 117.056 77.3082Z" fill="#FFA800"/>
<path d="M167.135 64.1583V98H160.705L143.833 77.4532V98H136.098V64.1583H142.576L159.4 84.705V64.1583H167.135ZM200.088 85.0918C200.088 85.1885 200.04 85.8653 199.943 87.1223H180.267C180.621 88.7338 181.459 90.0069 182.781 90.9416C184.102 91.8763 185.746 92.3436 187.712 92.3436C189.066 92.3436 190.258 92.1502 191.289 91.7635C192.353 91.3445 193.336 90.6999 194.239 89.8296L198.251 94.1807C195.802 96.9847 192.224 98.3868 187.519 98.3868C184.586 98.3868 181.991 97.8227 179.735 96.6947C177.479 95.5344 175.738 93.939 174.514 91.9085C173.289 89.878 172.677 87.5735 172.677 84.9951C172.677 82.4489 173.273 80.1606 174.465 78.1301C175.69 76.0673 177.35 74.4719 179.445 73.3439C181.572 72.1836 183.941 71.6035 186.552 71.6035C189.098 71.6035 191.402 72.1514 193.465 73.2472C195.528 74.343 197.139 75.9223 198.3 77.985C199.492 80.0155 200.088 82.3845 200.088 85.0918ZM186.6 77.3082C184.892 77.3082 183.458 77.7917 182.297 78.7586C181.137 79.7255 180.428 81.0469 180.17 82.7229H192.982C192.724 81.0791 192.015 79.7738 190.854 78.8069C189.694 77.8078 188.276 77.3082 186.6 77.3082ZM246.408 71.9902L236.98 98H229.729L223.879 81.8527L217.836 98H210.584L201.205 71.9902H208.312L214.451 89.5879L220.833 71.9902H227.215L233.403 89.5879L239.736 71.9902H246.408ZM258.287 98.3868C256.127 98.3868 254.016 98.1289 251.953 97.6132C249.891 97.0653 248.247 96.3885 247.022 95.5827L249.536 90.1681C250.696 90.9094 252.098 91.5217 253.742 92.0052C255.386 92.4564 256.997 92.682 258.577 92.682C261.768 92.682 263.363 91.8924 263.363 90.3131C263.363 89.5718 262.928 89.04 262.058 88.7177C261.187 88.3954 259.85 88.1214 258.045 87.8958C255.918 87.5735 254.161 87.2029 252.775 86.7839C251.389 86.3649 250.181 85.6236 249.149 84.56C248.15 83.4964 247.651 81.9816 247.651 80.0155C247.651 78.3718 248.118 76.9214 249.053 75.6645C250.02 74.3753 251.406 73.3761 253.21 72.667C255.048 71.958 257.207 71.6035 259.689 71.6035C261.526 71.6035 263.347 71.8129 265.152 72.2319C266.989 72.6187 268.504 73.1666 269.696 73.8757L267.182 79.242C264.894 77.9528 262.396 77.3082 259.689 77.3082C258.077 77.3082 256.869 77.5338 256.063 77.985C255.257 78.4363 254.854 79.0164 254.854 79.7255C254.854 80.5312 255.289 81.0953 256.159 81.4176C257.03 81.7399 258.416 82.046 260.317 82.3361C262.444 82.6906 264.185 83.0774 265.538 83.4964C266.892 83.8832 268.069 84.6083 269.068 85.6719C270.067 86.7355 270.566 88.2181 270.566 90.1197C270.566 91.7312 270.083 93.1655 269.116 94.4224C268.149 95.6794 266.731 96.6624 264.862 97.3715C263.025 98.0483 260.833 98.3868 258.287 98.3868Z" fill="white"/>
<rect x="160.806" y="63.8921" width="109.583" height="4.02878" fill="white"/>
<rect x="99.5683" y="63.8921" width="30.6187" height="4.02878" fill="#FFA800"/>
<path d="M90.696 111.648H91.496V120H90.696V111.648ZM91.096 109.616C90.9147 109.616 90.76 109.557 90.632 109.44C90.504 109.312 90.44 109.157 90.44 108.976C90.44 108.795 90.504 108.64 90.632 108.512C90.76 108.384 90.9147 108.32 91.096 108.32C91.2773 108.32 91.432 108.384 91.56 108.512C91.688 108.629 91.752 108.779 91.752 108.96C91.752 109.141 91.688 109.296 91.56 109.424C91.432 109.552 91.2773 109.616 91.096 109.616ZM105.268 111.584C106.303 111.584 107.113 111.888 107.7 112.496C108.297 113.104 108.596 113.979 108.596 115.12V120H107.796V115.184C107.796 114.245 107.567 113.531 107.108 113.04C106.649 112.549 106.009 112.304 105.188 112.304C104.249 112.304 103.503 112.597 102.948 113.184C102.404 113.771 102.132 114.56 102.132 115.552V120H101.332V115.184C101.332 114.245 101.103 113.531 100.644 113.04C100.185 112.549 99.5452 112.304 98.7239 112.304C97.7852 112.304 97.0385 112.597 96.4839 113.184C95.9399 113.771 95.6679 114.56 95.6679 115.552V120H94.8679V111.648H95.6359V113.44C95.9132 112.853 96.3239 112.4 96.8679 112.08C97.4225 111.749 98.0785 111.584 98.8359 111.584C99.5932 111.584 100.233 111.755 100.756 112.096C101.289 112.437 101.668 112.939 101.892 113.6C102.169 112.981 102.601 112.491 103.188 112.128C103.785 111.765 104.479 111.584 105.268 111.584ZM114.715 111.584C115.75 111.584 116.544 111.851 117.099 112.384C117.654 112.907 117.931 113.68 117.931 114.704V120H117.163V118.512C116.896 119.003 116.507 119.387 115.995 119.664C115.483 119.931 114.87 120.064 114.155 120.064C113.227 120.064 112.491 119.845 111.947 119.408C111.414 118.971 111.147 118.395 111.147 117.68C111.147 116.987 111.392 116.427 111.883 116C112.384 115.563 113.179 115.344 114.267 115.344H117.131V114.672C117.131 113.893 116.918 113.301 116.491 112.896C116.075 112.491 115.462 112.288 114.651 112.288C114.096 112.288 113.563 112.384 113.051 112.576C112.55 112.768 112.123 113.024 111.771 113.344L111.371 112.768C111.787 112.395 112.288 112.107 112.875 111.904C113.462 111.691 114.075 111.584 114.715 111.584ZM114.267 119.408C114.96 119.408 115.547 119.248 116.027 118.928C116.518 118.608 116.886 118.144 117.131 117.536V115.968H114.283C113.462 115.968 112.864 116.117 112.491 116.416C112.128 116.715 111.947 117.125 111.947 117.648C111.947 118.192 112.15 118.624 112.555 118.944C112.96 119.253 113.531 119.408 114.267 119.408ZM128.763 111.648V119.104C128.763 120.491 128.427 121.515 127.755 122.176C127.083 122.837 126.07 123.168 124.715 123.168C123.947 123.168 123.222 123.051 122.539 122.816C121.856 122.581 121.307 122.256 120.891 121.84L121.323 121.232C121.739 121.616 122.24 121.915 122.827 122.128C123.414 122.341 124.038 122.448 124.699 122.448C125.808 122.448 126.63 122.181 127.163 121.648C127.696 121.125 127.963 120.309 127.963 119.2V117.792C127.622 118.4 127.147 118.869 126.539 119.2C125.931 119.531 125.248 119.696 124.491 119.696C123.712 119.696 123.003 119.525 122.363 119.184C121.734 118.832 121.238 118.347 120.875 117.728C120.512 117.109 120.331 116.411 120.331 115.632C120.331 114.853 120.512 114.155 120.875 113.536C121.238 112.917 121.734 112.437 122.363 112.096C123.003 111.755 123.712 111.584 124.491 111.584C125.259 111.584 125.952 111.755 126.571 112.096C127.19 112.437 127.664 112.917 127.995 113.536V111.648H128.763ZM124.555 118.976C125.206 118.976 125.792 118.837 126.315 118.56C126.838 118.272 127.243 117.877 127.531 117.376C127.83 116.864 127.979 116.283 127.979 115.632C127.979 114.981 127.83 114.405 127.531 113.904C127.243 113.403 126.838 113.013 126.315 112.736C125.792 112.448 125.206 112.304 124.555 112.304C123.904 112.304 123.318 112.448 122.795 112.736C122.283 113.013 121.878 113.403 121.579 113.904C121.291 114.405 121.147 114.981 121.147 115.632C121.147 116.283 121.291 116.864 121.579 117.376C121.878 117.877 122.283 118.272 122.795 118.56C123.318 118.837 123.904 118.976 124.555 118.976ZM139.205 116.016H132.021C132.042 116.667 132.208 117.248 132.517 117.76C132.826 118.261 133.242 118.651 133.765 118.928C134.298 119.205 134.896 119.344 135.557 119.344C136.101 119.344 136.602 119.248 137.061 119.056C137.53 118.853 137.92 118.56 138.229 118.176L138.693 118.704C138.33 119.141 137.872 119.477 137.317 119.712C136.773 119.947 136.181 120.064 135.541 120.064C134.709 120.064 133.968 119.883 133.317 119.52C132.666 119.157 132.154 118.656 131.781 118.016C131.418 117.376 131.237 116.645 131.237 115.824C131.237 115.013 131.408 114.288 131.749 113.648C132.101 112.997 132.581 112.491 133.189 112.128C133.797 111.765 134.48 111.584 135.237 111.584C135.994 111.584 136.672 111.765 137.269 112.128C137.877 112.48 138.352 112.976 138.693 113.616C139.045 114.256 139.221 114.981 139.221 115.792L139.205 116.016ZM135.237 112.288C134.65 112.288 134.122 112.421 133.653 112.688C133.184 112.944 132.805 113.312 132.517 113.792C132.24 114.261 132.08 114.795 132.037 115.392H138.437C138.405 114.795 138.245 114.261 137.957 113.792C137.669 113.323 137.29 112.955 136.821 112.688C136.352 112.421 135.824 112.288 135.237 112.288ZM143.808 120.064C143.136 120.064 142.496 119.963 141.888 119.76C141.28 119.557 140.805 119.301 140.464 118.992L140.832 118.352C141.173 118.64 141.611 118.88 142.144 119.072C142.688 119.264 143.253 119.36 143.84 119.36C144.683 119.36 145.301 119.221 145.696 118.944C146.101 118.667 146.304 118.283 146.304 117.792C146.304 117.44 146.192 117.163 145.968 116.96C145.755 116.757 145.488 116.608 145.168 116.512C144.848 116.416 144.405 116.315 143.84 116.208C143.179 116.091 142.645 115.963 142.24 115.824C141.835 115.685 141.488 115.461 141.2 115.152C140.912 114.843 140.768 114.416 140.768 113.872C140.768 113.211 141.04 112.667 141.584 112.24C142.139 111.803 142.923 111.584 143.936 111.584C144.469 111.584 144.997 111.659 145.52 111.808C146.043 111.957 146.469 112.155 146.8 112.4L146.432 113.04C146.091 112.795 145.701 112.608 145.264 112.48C144.827 112.352 144.379 112.288 143.92 112.288C143.141 112.288 142.555 112.432 142.16 112.72C141.765 113.008 141.568 113.387 141.568 113.856C141.568 114.229 141.68 114.523 141.904 114.736C142.128 114.939 142.4 115.093 142.72 115.2C143.051 115.296 143.509 115.403 144.096 115.52C144.747 115.637 145.269 115.765 145.664 115.904C146.069 116.032 146.411 116.245 146.688 116.544C146.965 116.843 147.104 117.253 147.104 117.776C147.104 118.469 146.816 119.024 146.24 119.44C145.664 119.856 144.853 120.064 143.808 120.064ZM157.526 111.584C158.571 111.584 159.398 111.888 160.006 112.496C160.614 113.104 160.918 113.979 160.918 115.12V120H160.118V115.184C160.118 114.245 159.878 113.531 159.398 113.04C158.929 112.549 158.267 112.304 157.414 112.304C156.433 112.304 155.659 112.597 155.094 113.184C154.529 113.771 154.246 114.56 154.246 115.552V120H153.446V111.648H154.214V113.456C154.502 112.869 154.929 112.411 155.494 112.08C156.07 111.749 156.747 111.584 157.526 111.584ZM167.491 120.064C166.702 120.064 165.987 119.883 165.347 119.52C164.718 119.157 164.222 118.656 163.859 118.016C163.497 117.365 163.315 116.635 163.315 115.824C163.315 115.013 163.497 114.288 163.859 113.648C164.222 112.997 164.718 112.491 165.347 112.128C165.987 111.765 166.702 111.584 167.491 111.584C168.281 111.584 168.99 111.765 169.619 112.128C170.259 112.491 170.761 112.997 171.123 113.648C171.486 114.288 171.667 115.013 171.667 115.824C171.667 116.635 171.486 117.365 171.123 118.016C170.761 118.656 170.259 119.157 169.619 119.52C168.99 119.883 168.281 120.064 167.491 120.064ZM167.491 119.344C168.131 119.344 168.702 119.195 169.203 118.896C169.715 118.597 170.115 118.181 170.403 117.648C170.702 117.115 170.851 116.507 170.851 115.824C170.851 115.141 170.702 114.533 170.403 114C170.115 113.467 169.715 113.051 169.203 112.752C168.702 112.453 168.131 112.304 167.491 112.304C166.851 112.304 166.275 112.453 165.763 112.752C165.262 113.051 164.862 113.467 164.563 114C164.275 114.533 164.131 115.141 164.131 115.824C164.131 116.507 164.275 117.115 164.563 117.648C164.862 118.181 165.262 118.597 165.763 118.896C166.275 119.195 166.851 119.344 167.491 119.344ZM178.293 119.472C178.09 119.664 177.834 119.813 177.525 119.92C177.226 120.016 176.912 120.064 176.581 120.064C175.856 120.064 175.296 119.867 174.901 119.472C174.506 119.067 174.309 118.507 174.309 117.792V112.336H172.773V111.648H174.309V109.824H175.109V111.648H177.765V112.336H175.109V117.712C175.109 118.256 175.237 118.672 175.493 118.96C175.76 119.237 176.149 119.376 176.661 119.376C177.184 119.376 177.616 119.221 177.957 118.912L178.293 119.472ZM187.146 108.752C186.1 108.752 185.578 109.312 185.578 110.432V111.648H188.25V112.336H185.594V120H184.794V112.336H183.258V111.648H184.794V110.368C184.794 109.664 184.996 109.104 185.402 108.688C185.807 108.272 186.378 108.064 187.114 108.064C187.434 108.064 187.738 108.112 188.026 108.208C188.324 108.293 188.57 108.427 188.762 108.608L188.442 109.216C188.1 108.907 187.668 108.752 187.146 108.752ZM193.007 120.064C192.218 120.064 191.503 119.883 190.863 119.52C190.234 119.157 189.738 118.656 189.375 118.016C189.012 117.365 188.831 116.635 188.831 115.824C188.831 115.013 189.012 114.288 189.375 113.648C189.738 112.997 190.234 112.491 190.863 112.128C191.503 111.765 192.218 111.584 193.007 111.584C193.796 111.584 194.506 111.765 195.135 112.128C195.775 112.491 196.276 112.997 196.639 113.648C197.002 114.288 197.183 115.013 197.183 115.824C197.183 116.635 197.002 117.365 196.639 118.016C196.276 118.656 195.775 119.157 195.135 119.52C194.506 119.883 193.796 120.064 193.007 120.064ZM193.007 119.344C193.647 119.344 194.218 119.195 194.719 118.896C195.231 118.597 195.631 118.181 195.919 117.648C196.218 117.115 196.367 116.507 196.367 115.824C196.367 115.141 196.218 114.533 195.919 114C195.631 113.467 195.231 113.051 194.719 112.752C194.218 112.453 193.647 112.304 193.007 112.304C192.367 112.304 191.791 112.453 191.279 112.752C190.778 113.051 190.378 113.467 190.079 114C189.791 114.533 189.647 115.141 189.647 115.824C189.647 116.507 189.791 117.115 190.079 117.648C190.378 118.181 190.778 118.597 191.279 118.896C191.791 119.195 192.367 119.344 193.007 119.344ZM206.977 111.648V120H206.209V118.208C205.931 118.795 205.521 119.253 204.977 119.584C204.433 119.904 203.793 120.064 203.057 120.064C201.969 120.064 201.115 119.76 200.497 119.152C199.878 118.544 199.569 117.669 199.569 116.528V111.648H200.369V116.464C200.369 117.403 200.609 118.117 201.089 118.608C201.569 119.099 202.246 119.344 203.121 119.344C204.059 119.344 204.801 119.051 205.345 118.464C205.899 117.877 206.177 117.088 206.177 116.096V111.648H206.977ZM214.448 111.584C215.493 111.584 216.32 111.888 216.928 112.496C217.536 113.104 217.84 113.979 217.84 115.12V120H217.04V115.184C217.04 114.245 216.8 113.531 216.32 113.04C215.851 112.549 215.189 112.304 214.336 112.304C213.355 112.304 212.581 112.597 212.016 113.184C211.451 113.771 211.168 114.56 211.168 115.552V120H210.368V111.648H211.136V113.456C211.424 112.869 211.851 112.411 212.416 112.08C212.992 111.749 213.669 111.584 214.448 111.584ZM228.573 108.128V120H227.789V118.032C227.458 118.683 226.994 119.184 226.397 119.536C225.8 119.888 225.122 120.064 224.365 120.064C223.586 120.064 222.882 119.883 222.253 119.52C221.624 119.157 221.128 118.656 220.765 118.016C220.413 117.376 220.237 116.645 220.237 115.824C220.237 115.003 220.413 114.272 220.765 113.632C221.128 112.981 221.624 112.48 222.253 112.128C222.882 111.765 223.586 111.584 224.365 111.584C225.112 111.584 225.778 111.76 226.365 112.112C226.962 112.464 227.432 112.955 227.773 113.584V108.128H228.573ZM224.413 119.344C225.053 119.344 225.624 119.195 226.125 118.896C226.637 118.597 227.037 118.181 227.325 117.648C227.624 117.115 227.773 116.507 227.773 115.824C227.773 115.141 227.624 114.533 227.325 114C227.037 113.467 226.637 113.051 226.125 112.752C225.624 112.453 225.053 112.304 224.413 112.304C223.773 112.304 223.197 112.453 222.685 112.752C222.184 113.051 221.784 113.467 221.485 114C221.197 114.533 221.053 115.141 221.053 115.824C221.053 116.507 221.197 117.115 221.485 117.648C221.784 118.181 222.184 118.597 222.685 118.896C223.197 119.195 223.773 119.344 224.413 119.344Z" fill="white"/>
</svg>
