<svg width="278" height="73" viewBox="0 0 278 73" fill="none" xmlns="http://www.w3.org/2000/svg">
<path d="M68.46 16L54.72 58H44.28L35.04 29.56L25.5 58H15.12L1.32 16H11.4L20.88 45.52L30.78 16H39.78L49.38 45.76L59.16 16H68.46ZM102.444 41.98C102.444 42.1 102.384 42.94 102.264 44.5H77.8439C78.2839 46.5 79.3239 48.08 80.9639 49.24C82.6039 50.4 84.6439 50.98 87.0839 50.98C88.7639 50.98 90.2439 50.74 91.5239 50.26C92.8439 49.74 94.0639 48.94 95.1839 47.86L100.164 53.26C97.1239 56.74 92.6839 58.48 86.8439 58.48C83.2039 58.48 79.9839 57.78 77.1839 56.38C74.3839 54.94 72.2239 52.96 70.7039 50.44C69.1839 47.92 68.4239 45.06 68.4239 41.86C68.4239 38.7 69.1639 35.86 70.6439 33.34C72.1639 30.78 74.2239 28.8 76.8239 27.4C79.4639 25.96 82.4039 25.24 85.6439 25.24C88.8039 25.24 91.6639 25.92 94.2239 27.28C96.7839 28.64 98.7839 30.6 100.224 33.16C101.704 35.68 102.444 38.62 102.444 41.98ZM85.7039 32.32C83.5839 32.32 81.8039 32.92 80.3639 34.12C78.9239 35.32 78.0439 36.96 77.7239 39.04H93.6239C93.3039 37 92.4239 35.38 90.9839 34.18C89.5439 32.94 87.7839 32.32 85.7039 32.32Z" fill="#FFA800"/>
<path d="M147.855 16V58H139.875L118.935 32.5V58H109.335V16H117.375L138.255 41.5V16H147.855ZM188.753 41.98C188.753 42.1 188.693 42.94 188.573 44.5H164.153C164.593 46.5 165.633 48.08 167.273 49.24C168.913 50.4 170.953 50.98 173.393 50.98C175.073 50.98 176.553 50.74 177.833 50.26C179.153 49.74 180.373 48.94 181.493 47.86L186.473 53.26C183.433 56.74 178.993 58.48 173.153 58.48C169.513 58.48 166.293 57.78 163.493 56.38C160.693 54.94 158.533 52.96 157.013 50.44C155.493 47.92 154.733 45.06 154.733 41.86C154.733 38.7 155.473 35.86 156.953 33.34C158.473 30.78 160.533 28.8 163.133 27.4C165.773 25.96 168.713 25.24 171.953 25.24C175.113 25.24 177.973 25.92 180.533 27.28C183.093 28.64 185.093 30.6 186.533 33.16C188.013 35.68 188.753 38.62 188.753 41.98ZM172.013 32.32C169.893 32.32 168.113 32.92 166.673 34.12C165.233 35.32 164.353 36.96 164.033 39.04H179.933C179.613 37 178.733 35.38 177.293 34.18C175.853 32.94 174.093 32.32 172.013 32.32ZM246.238 25.72L234.538 58H225.538L218.278 37.96L210.778 58H201.778L190.138 25.72H198.958L206.578 47.56L214.498 25.72H222.418L230.098 47.56L237.958 25.72H246.238ZM260.981 58.48C258.301 58.48 255.681 58.16 253.121 57.52C250.561 56.84 248.521 56 247.001 55L250.121 48.28C251.561 49.2 253.301 49.96 255.341 50.56C257.381 51.12 259.381 51.4 261.341 51.4C265.301 51.4 267.281 50.42 267.281 48.46C267.281 47.54 266.741 46.88 265.661 46.48C264.581 46.08 262.921 45.74 260.681 45.46C258.041 45.06 255.861 44.6 254.141 44.08C252.421 43.56 250.921 42.64 249.641 41.32C248.401 40 247.781 38.12 247.781 35.68C247.781 33.64 248.361 31.84 249.521 30.28C250.721 28.68 252.441 27.44 254.681 26.56C256.961 25.68 259.641 25.24 262.721 25.24C265.001 25.24 267.261 25.5 269.501 26.02C271.781 26.5 273.661 27.18 275.141 28.06L272.021 34.72C269.181 33.12 266.081 32.32 262.721 32.32C260.721 32.32 259.221 32.6 258.221 33.16C257.221 33.72 256.721 34.44 256.721 35.32C256.721 36.32 257.261 37.02 258.341 37.42C259.421 37.82 261.141 38.2 263.501 38.56C266.141 39 268.301 39.48 269.981 40C271.661 40.48 273.121 41.38 274.361 42.7C275.601 44.02 276.221 45.86 276.221 48.22C276.221 50.22 275.621 52 274.421 53.56C273.221 55.12 271.461 56.34 269.141 57.22C266.861 58.06 264.141 58.48 260.981 58.48Z" fill="white"/>
<rect x="140" y="16" width="136" height="5" fill="white"/>
<rect x="64" y="16" width="38" height="5" fill="#FFA800"/>
</svg>
